<svg xmlns="http://www.w3.org/2000/svg" viewBox="0 0 64 64" fill="currentColor">
  <path
    d="M60,36.75H55.25V30A4.26,4.26,0,0,0,51,25.75H33.25v-8.5H38A1.25,1.25,0,0,0,39.25,16V4A1.25,1.25,0,0,0,38,2.75H26A1.25,1.25,0,0,0,24.75,4V16A1.25,1.25,0,0,0,26,17.25h4.75v8.5H13A4.26,4.26,0,0,0,8.75,30v6.75H4A1.25,1.25,0,0,0,2.75,38V56A1.25,1.25,0,0,0,4,57.25H16A1.25,1.25,0,0,0,17.25,56V38A1.25,1.25,0,0,0,16,36.75H11.25V30A1.76,1.76,0,0,1,13,28.25H30.75v8.5H26A1.25,1.25,0,0,0,24.75,38V56A1.25,1.25,0,0,0,26,57.25H38A1.25,1.25,0,0,0,39.25,56V38A1.25,1.25,0,0,0,38,36.75H33.25v-8.5H51A1.76,1.76,0,0,1,52.75,30v6.75H48A1.25,1.25,0,0,0,46.75,38V56A1.25,1.25,0,0,0,48,57.25H60A1.25,1.25,0,0,0,61.25,56V38A1.25,1.25,0,0,0,60,36.75ZM27.25,5.25h9.5v9.5h-9.5Zm-12.5,49.5H5.25V39.25h9.5Zm22,0h-9.5V39.25h9.5Zm22,0h-9.5V39.25h9.5Z"
  />
</svg>
